# xmcd
#
# Track frame offsets:
#	150
#	17422
#	35693
#	47630
#	68090
#	83486
#	97441
#	112116
#	132913
#	148079
#	161070
#	175171
#	186893
#	202192
#	223230
#	234617
#	254428
#
# Disc length: 3695 seconds
#
# Revision: 0
# Processed by: cddbd v1.5.2PL0 Copyright (c) Steve Scherf et al.
# Submitted via: EZCDAudioConverter 2.1.7.1
#
DISCID=030e6d11
DTITLE=V/A - Can't You Hear Me?
DYEAR=1900
DGENRE=
TTITLE0=Keith Mlevhu - The Bad Will Die
TTITLE1=Paul Ngozi - Can't You Hear Me
TTITLE2=Amanaz - Amanaz
TTITLE3=Witch - No Time
TTITLE4=Peace - Black Power
TTITLE5=Peace - Peaceful Man
TTITLE6=Chrissy Zebby Tembo - I'm Not Made Of Iron
TTITLE7=Blackfoot - Poor Connection 
TTITLE8=5 Revolutions - I Had A Dream [Instrumental]
TTITLE9=Eye Q - Making Life Out Of Music
TTITLE10=Witch - Like A Chicken
TTITLE11=Born Free - Mad Man
TTITLE12=The Funkees - Breakthrough
TTITLE13=Founders 15 - Don't Take Me For A Ride
TTITLE14=Wells Fargo - Coming Home
TTITLE15=5 Revolutions - Fwe Bena Zambia
TTITLE16=Witch - No Time [Pilooski Edit]
EXTD=
EXTT0=
EXTT1=
EXTT2=
EXTT3=
EXTT4=
EXTT5=
EXTT6=
EXTT7=
EXTT8=
EXTT9=
EXTT10=
EXTT11=
EXTT12=
EXTT13=
EXTT14=
EXTT15=
EXTT16=
PLAYORDER=
